<mxfile host="app.diagrams.net" modified="2022-05-12T03:39:25.643Z" agent="5.0 (Windows)" etag="fsTXjFl_4yDEavSs-1v-" version="18.0.1" type="github">
  <diagram id="xfnEaCmeF06P3o8jUjoa" name="Page-1">
    <mxGraphModel dx="942" dy="564" grid="1" gridSize="10" guides="1" tooltips="1" connect="1" arrows="1" fold="1" page="1" pageScale="1" pageWidth="850" pageHeight="1100" background="#ffffff" math="0" shadow="0">
      <root>
        <mxCell id="0" />
        <mxCell id="1" parent="0" />
      </root>
    </mxGraphModel>
  </diagram>
</mxfile>
